<?xml version="1.0" encoding="UTF-8"?>
<svg width="128" height="128" viewBox="0 0 128 128" xmlns="http://www.w3.org/2000/svg">
  <rect x="0" y="0" width="128" height="128" fill="#4CAF50" rx="20"/>
  <g fill="white">
    <path d="M64,30 C81.673112,30 96,44.326888 96,62 C96,79.673112 81.673112,94 64,94 C46.326888,94 32,79.673112 32,62 C32,44.326888 46.326888,30 64,30 Z M64,38 C50.745166,38 40,48.745166 40,62 C40,75.254834 50.745166,86 64,86 C77.254834,86 88,75.254834 88,62 C88,48.745166 77.254834,38 64,38 Z"/>
    <path d="M58,50 L70,50 L64,74 L58,50 Z"/>
    <rect x="44" y="58" width="40" height="8" rx="4"/>
  </g>
</svg> 